<svg width="124" height="16" viewBox="0 0 124 16" fill="none" xmlns="http://www.w3.org/2000/svg">
<path d="M5.5 0.96C6.98 0.96 8.27333 1.25333 9.38 1.84C10.4867 2.42667 11.34 3.25333 11.94 4.32C12.5533 5.37333 12.86 6.59333 12.86 7.98C12.86 9.35333 12.5533 10.5733 11.94 11.64C11.34 12.7067 10.48 13.5333 9.36 14.12C8.25333 14.7067 6.96667 15 5.5 15H0.24V0.96H5.5ZM5.28 12.04C6.57333 12.04 7.58 11.6867 8.3 10.98C9.02 10.2733 9.38 9.27333 9.38 7.98C9.38 6.68667 9.02 5.68 8.3 4.96C7.58 4.24 6.57333 3.88 5.28 3.88H3.66V12.04H5.28ZM23.3713 15L20.5113 10.7L17.9913 15H14.1113L18.6113 7.86L14.0113 0.96H17.9913L20.8113 5.2L23.2913 0.96H27.1713L22.7113 8.04L27.3513 15H23.3713ZM37.6681 15L34.8081 10.7L32.2881 15H28.4081L32.9081 7.86L28.3081 0.96H32.2881L35.1081 5.2L37.5881 0.96H41.4681L37.0081 8.04L41.6481 15H37.6681ZM44.965 15.16C44.365 15.16 43.8717 14.9867 43.485 14.64C43.1117 14.28 42.925 13.84 42.925 13.32C42.925 12.7867 43.1117 12.34 43.485 11.98C43.8717 11.62 44.365 11.44 44.965 11.44C45.5517 11.44 46.0317 11.62 46.405 11.98C46.7917 12.34 46.985 12.7867 46.985 13.32C46.985 13.84 46.7917 14.28 46.405 14.64C46.0317 14.9867 45.5517 15.16 44.965 15.16Z" fill="white"/>
<path d="M64.3695 1.04V15H61.5695V5.92L57.8295 15H55.7095L51.9495 5.92V15H49.1495V1.04H52.3295L56.7695 11.42L61.2095 1.04H64.3695ZM73.6178 15.14C72.3111 15.14 71.1111 14.8333 70.0178 14.22C68.9245 13.6067 68.0578 12.76 67.4178 11.68C66.7778 10.5867 66.4578 9.35333 66.4578 7.98C66.4578 6.62 66.7778 5.4 67.4178 4.32C68.0578 3.22667 68.9245 2.37333 70.0178 1.76C71.1111 1.14667 72.3111 0.84 73.6178 0.84C74.9378 0.84 76.1378 1.14667 77.2178 1.76C78.3111 2.37333 79.1711 3.22667 79.7978 4.32C80.4378 5.4 80.7578 6.62 80.7578 7.98C80.7578 9.35333 80.4378 10.5867 79.7978 11.68C79.1711 12.76 78.3111 13.6067 77.2178 14.22C76.1245 14.8333 74.9245 15.14 73.6178 15.14ZM73.6178 12.64C74.4578 12.64 75.1978 12.4533 75.8378 12.08C76.4778 11.6933 76.9778 11.1467 77.3378 10.44C77.6978 9.73333 77.8778 8.91333 77.8778 7.98C77.8778 7.04667 77.6978 6.23333 77.3378 5.54C76.9778 4.83333 76.4778 4.29333 75.8378 3.92C75.1978 3.54667 74.4578 3.36 73.6178 3.36C72.7778 3.36 72.0311 3.54667 71.3778 3.92C70.7378 4.29333 70.2378 4.83333 69.8778 5.54C69.5178 6.23333 69.3378 7.04667 69.3378 7.98C69.3378 8.91333 69.5178 9.73333 69.8778 10.44C70.2378 11.1467 70.7378 11.6933 71.3778 12.08C72.0311 12.4533 72.7778 12.64 73.6178 12.64ZM95.3809 1.04L90.2609 15H86.8609L81.7409 1.04H84.7409L88.5809 12.14L92.4009 1.04H95.3809ZM99.8597 1.04V15H97.0597V1.04H99.8597ZM105.426 3.3V6.8H110.126V9.02H105.426V12.72H110.726V15H102.626V1.02H110.726V3.3H105.426ZM118.091 15.14C117.117 15.14 116.237 14.9733 115.451 14.64C114.677 14.3067 114.064 13.8267 113.611 13.2C113.157 12.5733 112.924 11.8333 112.911 10.98H115.911C115.951 11.5533 116.151 12.0067 116.511 12.34C116.884 12.6733 117.391 12.84 118.031 12.84C118.684 12.84 119.197 12.6867 119.571 12.38C119.944 12.06 120.131 11.6467 120.131 11.14C120.131 10.7267 120.004 10.3867 119.751 10.12C119.497 9.85333 119.177 9.64667 118.791 9.5C118.417 9.34 117.897 9.16667 117.231 8.98C116.324 8.71333 115.584 8.45333 115.011 8.2C114.451 7.93333 113.964 7.54 113.551 7.02C113.151 6.48667 112.951 5.78 112.951 4.9C112.951 4.07333 113.157 3.35333 113.571 2.74C113.984 2.12667 114.564 1.66 115.311 1.34C116.057 1.00667 116.911 0.84 117.871 0.84C119.311 0.84 120.477 1.19333 121.371 1.9C122.277 2.59333 122.777 3.56667 122.871 4.82H119.791C119.764 4.34 119.557 3.94667 119.171 3.64C118.797 3.32 118.297 3.16 117.671 3.16C117.124 3.16 116.684 3.3 116.351 3.58C116.031 3.86 115.871 4.26667 115.871 4.8C115.871 5.17333 115.991 5.48667 116.231 5.74C116.484 5.98 116.791 6.18 117.151 6.34C117.524 6.48667 118.044 6.66 118.711 6.86C119.617 7.12667 120.357 7.39333 120.931 7.66C121.504 7.92667 121.997 8.32667 122.411 8.86C122.824 9.39333 123.031 10.0933 123.031 10.96C123.031 11.7067 122.837 12.4 122.451 13.04C122.064 13.68 121.497 14.1933 120.751 14.58C120.004 14.9533 119.117 15.14 118.091 15.14Z" fill="#42FF00"/>
</svg>
